# AST/ASF file generated using VICON BodyLanguage
# -----------------------------------------------
:version 1.10
:name VICON
:units
  mass 1.0
  length 0.45
  angle deg
:documentation
   .ast/.asf automatically generated from VICON data using
   VICON BodyBuilder and BodyLanguage model FoxedUp or BRILLIANT.MOD
:root
   order TX TY TZ RX RY RZ
   axis XYZ
   position 0 0 0  
   orientation 0 0 0 
:bonedata
  begin
     id 1 
     name lhipjoint
     direction 0.577973 -0.728611 0.367523 
     length 2.48544 
     axis 0 0 0  XYZ
  end
  begin
     id 2 
     name lfemur
     direction 0.34202 -0.939693 0  
     length 7.1921  
     axis 0 0 20  XYZ
    dof rx ry rz
    limits (-160.0 20.0)
           (-70.0 70.0)
           (-60.0 70.0)
  end
  begin
     id 3 
     name ltibia
     direction 0.34202 -0.939693 0   
     length 7.71059   
     axis 0 0 20   XYZ
    dof rx
    limits (-10.0 170.0)
  end
  begin
     id 4 
     name lfoot
     direction 0.089538 -0.246004 0.965124   
     length 2.19909   
     axis -90 7.62852e-016 20   XYZ
    dof rx rz
    limits (-45.0 90.0)
           (-70.0 20.0)
  end
  begin
     id 5 
     name ltoes
     direction 1.53544e-011 -4.21829e-011 1   
     length 1.10116   
     axis -90 7.62852e-016 20   XYZ
    dof rx
    limits (-90.0 20.0)
  end
  begin
     id 6 
     name rhipjoint
     direction -0.554414 -0.743062 0.374812   
     length 2.4371  
     axis 0 0 0  XYZ 
  end
  begin
     id 7 
     name rfemur
     direction -0.34202 -0.939693 0   
     length 7.47254   
     axis 0 0 -20   XYZ
    dof rx ry rz
    limits (-160.0 20.0)
           (-70.0 70.0)
           (-70.0 60.0)
  end
  begin
     id 8 
     name rtibia
     direction -0.34202 -0.939693 0   
     length 7.65855   
     axis 0 0 -20   XYZ
    dof rx
    limits (-10.0 170.0)
 end
 begin
     id 9 
     name rfoot
     direction -0.133779 -0.367555 0.92033   
     length 2.43006  
     axis -90 -7.62852e-016 -20   XYZ
    dof rx rz
    limits (-45.0 90.0)
           (-20.0 70.0)
  end
  begin
     id 10 
     name rtoes
     direction -1.53563e-011 -4.21889e-011 1   
     length 1.19625   
     axis -90 -7.62852e-016 -20   XYZ
    dof rx
    limits (-90.0 20.0)
  end
  begin
     id 11 
     name lowerback
     direction 0.0249066 0.998043 -0.0573585   
     length 2.08485   
     axis 0 0 0   XYZ
    dof rx ry rz
    limits (-20.0 45.0)
           (-30.0 30.0)
           (-30.0 30.0)
  end
  begin
     id 12 
     name upperback
     direction 0.0237884 0.999673 0.00943178   
     length 2.08515   
     axis 0 0 0   XYZ
    dof rx ry rz
    limits (-20.0 45.0)
           (-30.0 30.0)
           (-30.0 30.0)
  end
  begin
     id 13 
     name thorax
     direction 0.0106671 0.999301 0.0358174   
     length 2.09037   
     axis 0 0 0   XYZ
    dof rx ry rz
    limits (-20.0 45.0)
           (-30.0 30.0)
           (-30.0 30.0)
  end
  begin
     id 14 
     name lowerneck
     direction -0.0580016 0.987052 0.149546   
     length 1.84454   
     axis 0 0 0   XYZ
    dof rx ry rz
    limits (-20.0 45.0)
           (-30.0 30.0)
           (-30.0 30.0)
  end
  begin
     id 15 
     name upperneck
     direction 0.079456 0.981963 -0.171567   
     length 1.88141   
     axis 0 0 0   XYZ
    dof rx ry rz
    limits (-20.0 45.0)
           (-30.0 30.0)
           (-30.0 30.0)
  end
  begin
     id 16
     name head
     direction 0.0262167 0.9967 -0.0768276  
     length 1.89541  
     axis 0 0 0   XYZ
    dof rx ry rz
    limits (-20.0 45.0)
           (-30.0 30.0)
           (-30.0 30.0)
  end
  begin
     id 17 
     name lclavicle
     direction 0.946135 0.322134 -0.0325326  
     length 3.949  
     axis 0 0 0   XYZ
    dof ry rz
    limits (-20.0 10.0)
           (0.0 20.0)
  end
  begin
     id 18 
     name lhumerus
     direction 1 -4.48964e-011 1.94005e-028   
     length 5.10995   
     axis 180 -30 -90   XYZ
    dof rx ry rz
    limits (-60.0 90.0)
           (-90.0 90.0)
           (-90.0 90.0)
  end
  begin
     id 19
     name lradius
     direction 1 -4.48976e-011 2.87852e-027   
     length 3.21207   
     axis 180 -30 -90   XYZ
    dof rx
    limits (-10.0 170.0)
  end
  begin
     id 20
     name lwrist
     direction 1 -4.48963e-011 1.9975e-027   
     length 1.60604   
     axis 2.96054e-016 90 90   XYZ
    dof ry
    limits (-180.0 0.0)
 end
  begin
     id 21 
     name lhand
     direction 1 -4.48919e-011 4.00227e-027   
     length 0.63349   
     axis -2.5488e-015 90 90   XYZ
    dof rx rz
    limits (-90.0 90.0)
           (-45.0 45.0)
  end
  begin
     id 22 
     name lfingers
     direction 1 -4.49037e-011 7.9652e-027   
     length 0.510736   
     axis -5.0975e-015 90 90   XYZ
    dof rx
    limits (0.0 90.0)
  end
  begin
     id 23
     name lthumb
     direction 0.707107 -6.34922e-011 0.707107   
     length 0.733318   
     axis -90 45 -4.48553e-014   XYZ
    dof rx rz
    limits (-45.0 45.0)
           (-45.0 45.0)
  end
  begin
     id 24 
     name rclavicle
     direction -0.940085 0.328911 -0.0897654   
     length 3.93848  
     axis 0 0 0   XYZ 
    dof ry rz
    limits (-10.0 20.0)
           (-20.0 0.0)
  end
  begin
     id 25 
     name rhumerus
     direction -1 -4.48958e-011 3.02044e-027  
     length 5.25109   
     axis 180 30 90   XYZ
    dof rx ry rz
    limits (-90.0 60.0)
           (-90.0 90.0)
           (-90.0 90.0)
  end
  begin
     id 26 
     name rradius
     direction -1 -4.4897e-011 9.78352e-028   
     length 3.28364   
     axis 180 30 90   XYZ
    dof rx
    limits (-10.0 170.0)
  end
  begin
     id 27 
     name rwrist
     direction -1 -4.48943e-011 1.99918e-027   
     length 1.64182   
     axis 2.96054e-016 -90 -90   XYZ
    dof ry
    limits (-180.0 0.0)
  end
  begin
     id 28
     name rhand
     direction -1 -4.49024e-011 3.98478e-027   
     length 0.599745   
     axis -2.5488e-015 -90 -90   XYZ
    dof rx rz
    limits (-90.0 90.0)
           (-45.0 45.0)
  end
  begin
     id 29
     name rfingers
     direction -1 -4.48914e-011 8.00621e-027   
     length 0.48353   
     axis -5.0975e-015 -90 -90   XYZ
    dof rx
    limits (0.0 90.0)
  end
  begin
     id 30
     name rthumb
     direction -0.707107 -6.34992e-011 0.707107   
     length 0.694255   
     axis -90 -45 4.48553e-014   XYZ
    dof rx rz
    limits (-45.0 45.0)
           (-45.0 45.0)
  end
:hierarchy
  begin
    root lhipjoint rhipjoint lowerback
    lhipjoint lfemur
    lfemur ltibia
    ltibia lfoot
    lfoot ltoes
    rhipjoint rfemur
    rfemur rtibia
    rtibia rfoot
    rfoot rtoes
    lowerback upperback
    upperback thorax
    thorax lowerneck lclavicle rclavicle
    lowerneck upperneck
    upperneck head
    lclavicle lhumerus
    lhumerus lradius
    lradius lwrist
    lwrist lhand lthumb
    lhand lfingers
    rclavicle rhumerus
    rhumerus rradius
    rradius rwrist
    rwrist rhand rthumb
    rhand rfingers
  end

#!OML:ASF E:\CV Data\Top Level 1\Subject 1\Session 1\player.ASF
:FULLY-SPECIFIED
:DEGREES
121
root 8.7144 16.9424 -4.88998 69.4763 -86.6086 -68.3279
lowerback 2.319 2.08692 4.58418
upperback -0.883635 2.93852 1.87134
thorax -2.07714 1.40403 -0.757246
lowerneck -14.7118 11.6507 -2.92136
upperneck 22.8661 15.8364 4.16505
head 8.98196 7.54583 3.67945
rclavicle 1.23246e-014 1.35174e-014
rhumerus -45.6802 37.6321 -105.873
rradius 87.8315
rwrist -12.4251
rhand -26.4084 14.159
rfingers 7.12502
rthumb 0.151294 -15.8207
lclavicle 1.23246e-014 1.35174e-014
lhumerus -44.5242 -33.9384 111.304
lradius 89.8292
lwrist 47.7338
lhand -18.6546 40.8447
lfingers 7.12502
lthumb 7.63856 70.6868
rfemur -18.6704 5.81607 25.8238
rtibia 44.468
rfoot -25.7686 -7.50158
rtoes 11.8667
lfemur -17.8233 0.33697 -12.5712
ltibia 41.194
lfoot -19.0663 7.67024
ltoes -1.89312
122
root 8.71312 16.9409 -4.9053 69.986 -86.6387 -68.9005
lowerback 2.28302 2.09595 4.43083
upperback -0.854587 2.94307 1.90817
thorax -2.03614 1.40985 -0.632462
lowerneck -14.7073 11.6585 -2.9236
upperneck 22.9129 15.8541 4.14093
head 8.99877 7.54883 3.6763
rclavicle 5.75699e-015 -1.59028e-015
rhumerus -45.5991 37.6279 -105.834
rradius 87.8246
rwrist -12.4272
rhand -26.435 14.1868
rfingers 7.12502
rthumb 0.125591 -15.7929
lclavicle 5.75699e-015 -1.59028e-015
lhumerus -44.4568 -33.9261 111.265
lradius 89.8535
lwrist 47.6827
lhand -18.6837 40.8417
lfingers 7.12502
lthumb 7.61045 70.6848
rfemur -18.5804 5.95253 25.8866
rtibia 44.4794
rfoot -25.7915 -7.61053
rtoes 11.9192
lfemur -17.7156 0.434601 -12.5221
ltibia 41.167
lfoot -19.0874 7.60308
ltoes -1.8812
123
root 8.71332 16.9386 -4.9189 71.4864 -86.6941 -70.4917
lowerback 2.29885 2.12779 4.29935
upperback -0.821724 2.98176 1.93498
thorax -2.01745 1.43189 -0.533299
lowerneck -14.7094 11.6645 -2.89731
upperneck 22.9623 15.8646 4.10996
head 9.0212 7.54972 3.66712
rclavicle 8.20142e-015 2.46493e-014
rhumerus -45.5116 37.6126 -105.79
rradius 87.8178
rwrist -12.4322
rhand -26.4634 14.2104
rfingers 7.12502
rthumb 0.0982012 -15.7694
lclavicle 8.20142e-015 2.46493e-014
lhumerus -44.3939 -33.9276 111.223
lradius 89.8829
lwrist 47.6456
lhand -18.7604 40.8483
lfingers 7.12502
lthumb 7.53641 70.694
rfemur -18.4803 6.0966 25.9353
rtibia 44.5022
rfoot -25.8049 -7.66984
rtoes 11.9561
lfemur -17.5775 0.555327 -12.494
ltibia 41.1495
lfoot -19.0883 7.61972
ltoes -2.11887
124
root 8.7167 16.9373 -4.92417 72.3656 -86.7318 -71.4008
lowerback 2.29874 2.14777 4.29949
upperback -0.815481 3.00811 1.92963
thorax -2.00961 1.44525 -0.539617
lowerneck -14.7184 11.6687 -2.85256
upperneck 23.0149 15.8689 4.07636
head 9.04811 7.54878 3.65475
rclavicle 5.18673e-014 1.39149e-014
rhumerus -45.4167 37.5891 -105.741
rradius 87.811
rwrist -12.4411
rhand -26.4901 14.2297
rfingers 7.12502
rthumb 0.07242 -15.75
lclavicle 5.18673e-014 1.39149e-014
lhumerus -44.338 -33.9324 111.194
lradius 89.9125
lwrist 47.599
lhand -18.8676 40.8539
lfingers 7.12502
lthumb 7.43292 70.7034
rfemur -18.4838 6.09867 25.9339
rtibia 44.5338
rfoot -25.7956 -7.62032
rtoes 11.9682
lfemur -17.5435 0.540796 -12.5082
ltibia 41.1431
lfoot -19.0371 7.74641
ltoes -2.42498
125
root 8.72062 16.9356 -4.92968 73.2579 -86.7685 -72.3159
lowerback 2.29837 2.1699 4.29938
upperback -0.812824 3.03743 1.9207
thorax -2.00503 1.46 -0.54963
lowerneck -14.7321 11.6709 -2.79423
upperneck 23.0724 15.868 4.04014
head 9.07923 7.54592 3.63986
rclavicle -8.74187e-015 -7.95139e-016
rhumerus -45.3139 37.5572 -105.692
rradius 87.8013
rwrist -12.448
rhand -26.5107 14.2365
rfingers 7.12502
rthumb 0.0524526 -15.7433
lclavicle -8.74187e-015 -7.95139e-016
lhumerus -44.2921 -33.946 111.172
lradius 89.9452
lwrist 47.544
lhand -19.0004 40.859
lfingers 7.12502
lthumb 7.30476 70.7129
rfemur -18.5025 6.10426 25.9342
rtibia 44.5745
rfoot -25.7838 -7.5786
rtoes 11.9751
lfemur -17.5256 0.554814 -12.5234
ltibia 41.1447
lfoot -18.9724 7.88689
ltoes -2.95135
126
root 8.72521 16.934 -4.93535 74.1567 -86.7994 -73.2323
lowerback 2.30142 2.18915 4.30083
upperback -0.813209 3.0633 1.91414
thorax -2.00568 1.47287 -0.558177
lowerneck -14.7398 11.6737 -2.75548
upperneck 23.1212 15.8689 4.0181
head 9.10308 7.54449 3.63126
rclavicle -2.75061e-014 -2.74323e-014
rhumerus -45.2091 37.5351 -105.644
rradius 87.7914
rwrist -12.4555
rhand -26.5306 14.2361
rfingers 7.12502
rthumb 0.0332637 -15.7437
lclavicle -2.75061e-014 -2.74323e-014
lhumerus -44.251 -33.9561 111.154
lradius 89.9831
lwrist 47.4817
lhand -19.1506 40.8591
lfingers 7.12502
lthumb 7.15981 70.718
rfemur -18.5315 6.10838 25.9413
rtibia 44.6193
rfoot -25.7676 -7.54365
rtoes 11.9728
lfemur -17.5185 0.550618 -12.5243
ltibia 41.1549
lfoot -18.9289 7.98186
ltoes -3.23058
127
root 8.73037 16.9324 -4.94162 75.132 -86.8315 -74.2244
lowerback 2.31089 2.2075 4.29287
upperback -0.814781 3.08817 1.90837
thorax -2.01171 1.48526 -0.560974
lowerneck -14.7293 11.6752 -2.75726
upperneck 23.1476 15.8702 4.02201
head 9.10977 7.54426 3.63362
rclavicle 6.88913e-014 2.94201e-014
rhumerus -45.1011 37.5209 -105.6
rradius 87.7796
rwrist -12.4606
rhand -26.5513 14.2302
rfingers 7.12502
rthumb 0.0132812 -15.7495
lclavicle 6.88913e-014 2.94201e-014
lhumerus -44.2127 -33.9651 111.136
lradius 90.0242
lwrist 47.4152
lhand -19.3087 40.8541
lfingers 7.12502
lthumb 7.00716 70.7181
rfemur -18.5645 6.11974 25.9514
rtibia 44.667
rfoot -25.7465 -7.51699
rtoes 11.968
lfemur -17.5119 0.546344 -12.516
ltibia 41.1674
lfoot -18.9054 8.02878
ltoes -3.29882
128
root 8.73595 16.9308 -4.94861 76.288 -86.8634 -75.4004
lowerback 2.32796 2.22408 4.27333
upperback -0.815334 3.11081 1.90845
thorax -2.02198 1.49664 -0.551599
lowerneck -14.7214 11.6812 -2.75934
upperneck 23.1705 15.8775 4.02888
head 9.11514 7.54729 3.63752
rclavicle 9.5339e-015 7.55382e-015
rhumerus -44.9958 37.5266 -105.557
rradius 87.7708
rwrist -12.4658
rhand -26.5678 14.2266
rfingers 7.12502
rthumb -0.00263407 -15.7531
lclavicle 9.5339e-015 7.55382e-015
lhumerus -44.1707 -33.9702 111.104
lradius 90.0766
lwrist 47.3572
lhand -19.4576 40.8369
lfingers 7.12502
lthumb 6.86346 70.7057
rfemur -18.5967 6.14314 25.9688
rtibia 44.7172
rfoot -25.7204 -7.50177
rtoes 11.9511
lfemur -17.4991 0.535826 -12.4931
ltibia 41.182
lfoot -18.9101 8.01371
ltoes -3.02666
129
root 8.74147 16.929 -4.95666 77.8098 -86.9043 -76.9537
lowerback 2.35431 2.24173 4.22912
upperback -0.810091 3.13455 1.91492
thorax -2.03311 1.50899 -0.522314
lowerneck -14.7124 11.6906 -2.77641
upperneck 23.1903 15.8918 4.04067
head 9.11715 7.55314 3.64543
rclavicle -1.46417e-014 -3.18055e-015
rhumerus -44.8925 37.5571 -105.518
rradius 87.7633
rwrist -12.4738
rhand -26.5874 14.2309
rfingers 7.12502
rthumb -0.0215537 -15.7488
lclavicle -1.46417e-014 -3.18055e-015
lhumerus -44.12 -33.9602 111.058
lradius 90.1365
lwrist 47.3026
lhand -19.5901 40.826
lfingers 7.12502
lthumb 6.73554 70.6989
rfemur -18.6173 6.191 25.9872
rtibia 44.7725
rfoot -25.6916 -7.49886
rtoes 11.9234
lfemur -17.4672 0.545106 -12.467
ltibia 41.1981
lfoot -18.9363 7.95526
ltoes -2.57287
130
root 8.74658 16.9264 -4.96789 80.3308 -86.9553 -79.5291
lowerback 2.39535 2.2718 4.13355
upperback -0.794737 3.17393 1.93556
thorax -2.04503 1.53002 -0.451018
lowerneck -14.707 11.7031 -2.79172
upperneck 23.21 15.9105 4.05063
head 9.11991 7.56099 3.65322
rclavicle 1.34568e-014 -3.57812e-015
rhumerus -44.7846 37.6062 -105.484
rradius 87.7452
rwrist -12.474
rhand -26.6211 14.2345
rfingers 7.12502
rthumb -0.0541727 -15.7452
lclavicle 1.34568e-014 -3.57812e-015
lhumerus -44.0609 -33.9283 111.001
lradius 90.201
lwrist 47.2519
lhand -19.6889 40.8164
lfingers 7.12502
lthumb 6.64019 70.6923
rfemur -18.6129 6.31464 26.0222
rtibia 44.8362
rfoot -25.661 -7.52805
rtoes 11.898
lfemur -17.3983 0.656687 -12.4336
ltibia 41.2167
lfoot -18.9601 7.89233
ltoes -2.34373
